<svg xmlns="http://www.w3.org/2000/svg" viewBox="0 0 100 100" role="img" aria-label="Otimiza">
  <path fill="currentColor" fill-rule="evenodd" d="M96.000,50.000L95.937,50.000L95.748,50.000L95.435,50.002L95.000,50.005L94.446,50.013L93.776,50.028L92.995,50.051L92.109,50.086L91.123,50.137L90.044,50.206L88.878,50.299L87.634,50.419L86.320,50.571L84.943,50.759L83.513,50.987L82.039,51.259L80.529,51.580L78.992,51.954L77.438,52.385L75.875,52.875L74.312,53.428L72.757,54.048L71.219,54.734L69.706,55.491L68.223,56.318L66.779,57.215L65.379,58.183L64.030,59.221L62.735,60.328L61.500,61.500L60.328,62.735L59.221,64.030L58.183,65.379L57.215,66.779L56.318,68.223L55.491,69.706L54.734,71.219L54.048,72.757L53.428,74.312L52.875,75.875L52.385,77.438L51.954,78.992L51.580,80.529L51.259,82.039L50.987,83.513L50.759,84.943L50.571,86.320L50.419,87.634L50.299,88.878L50.206,90.044L50.137,91.123L50.086,92.109L50.051,92.995L50.028,93.776L50.013,94.446L50.005,95.000L50.002,95.435L50.000,95.748L50.000,95.937L50.000,96.000L50.000,95.937L50.000,95.748L49.998,95.435L49.995,95.000L49.987,94.446L49.972,93.776L49.949,92.995L49.914,92.109L49.863,91.123L49.794,90.044L49.701,88.878L49.581,87.634L49.429,86.320L49.241,84.943L49.013,83.513L48.741,82.039L48.420,80.529L48.046,78.992L47.615,77.438L47.125,75.875L46.572,74.312L45.952,72.757L45.266,71.219L44.509,69.706L43.682,68.223L42.785,66.779L41.817,65.379L40.779,64.030L39.672,62.735L38.500,61.500L37.265,60.328L35.970,59.221L34.621,58.183L33.221,57.215L31.777,56.318L30.294,55.491L28.781,54.734L27.243,54.048L25.688,53.428L24.125,52.875L22.562,52.385L21.008,51.954L19.471,51.580L17.961,51.259L16.487,50.987L15.057,50.759L13.680,50.571L12.366,50.419L11.122,50.299L9.956,50.206L8.877,50.137L7.891,50.086L7.005,50.051L6.224,50.028L5.554,50.013L5.000,50.005L4.565,50.002L4.252,50.000L4.063,50.000L4.000,50.000L4.063,50.000L4.252,50.000L4.565,49.998L5.000,49.995L5.554,49.987L6.224,49.972L7.005,49.949L7.891,49.914L8.877,49.863L9.956,49.794L11.122,49.701L12.366,49.581L13.680,49.429L15.057,49.241L16.487,49.013L17.961,48.741L19.471,48.420L21.008,48.046L22.562,47.615L24.125,47.125L25.688,46.572L27.243,45.952L28.781,45.266L30.294,44.509L31.777,43.682L33.221,42.785L34.621,41.817L35.970,40.779L37.265,39.672L38.500,38.500L39.672,37.265L40.779,35.970L41.817,34.621L42.785,33.221L43.682,31.777L44.509,30.294L45.266,28.781L45.952,27.243L46.572,25.688L47.125,24.125L47.615,22.562L48.046,21.008L48.420,19.471L48.741,17.961L49.013,16.487L49.241,15.057L49.429,13.680L49.581,12.366L49.701,11.122L49.794,9.956L49.863,8.877L49.914,7.891L49.949,7.005L49.972,6.224L49.987,5.554L49.995,5.000L49.998,4.565L50.000,4.252L50.000,4.063L50.000,4.000L50.000,4.063L50.000,4.252L50.002,4.565L50.005,5.000L50.013,5.554L50.028,6.224L50.051,7.005L50.086,7.891L50.137,8.877L50.206,9.956L50.299,11.122L50.419,12.366L50.571,13.680L50.759,15.057L50.987,16.487L51.259,17.961L51.580,19.471L51.954,21.008L52.385,22.562L52.875,24.125L53.428,25.688L54.048,27.243L54.734,28.781L55.491,30.294L56.318,31.777L57.215,33.221L58.183,34.621L59.221,35.970L60.328,37.265L61.500,38.500L62.735,39.672L64.030,40.779L65.379,41.817L66.779,42.785L68.223,43.682L69.706,44.509L71.219,45.266L72.757,45.952L74.312,46.572L75.875,47.125L77.438,47.615L78.992,48.046L80.529,48.420L82.039,48.741L83.513,49.013L84.943,49.241L86.320,49.429L87.634,49.581L88.878,49.701L90.044,49.794L91.123,49.863L92.109,49.914L92.995,49.949L93.776,49.972L94.446,49.987L95.000,49.995L95.435,49.998L95.748,50.000L95.937,50.000Z M96.700,56.200L96.645,56.200L96.478,56.200L96.203,56.202L95.820,56.205L95.332,56.212L94.742,56.224L94.055,56.245L93.274,56.276L92.406,56.320L91.456,56.382L90.430,56.464L89.334,56.569L88.177,56.703L86.965,56.868L85.706,57.069L84.408,57.308L83.079,57.591L81.726,57.920L80.357,58.299L78.981,58.731L77.605,59.219L76.236,59.764L74.882,60.368L73.549,61.034L72.244,61.762L70.973,62.552L69.741,63.405L68.552,64.319L67.413,65.293L66.325,66.325L65.293,67.413L64.319,68.552L63.405,69.741L62.552,70.973L61.762,72.244L61.034,73.549L60.368,74.882L59.764,76.236L59.219,77.605L58.731,78.981L58.299,80.357L57.920,81.726L57.591,83.079L57.308,84.408L57.069,85.706L56.868,86.965L56.703,88.177L56.569,89.334L56.464,90.430L56.382,91.456L56.320,92.406L56.276,93.274L56.245,94.055L56.224,94.742L56.212,95.332L56.205,95.820L56.202,96.203L56.200,96.478L56.200,96.645L56.200,96.700L56.200,96.645L56.200,96.478L56.198,96.203L56.195,95.820L56.188,95.332L56.176,94.742L56.155,94.055L56.124,93.274L56.080,92.406L56.018,91.456L55.936,90.430L55.831,89.334L55.697,88.177L55.532,86.965L55.331,85.706L55.092,84.408L54.809,83.079L54.480,81.726L54.101,80.357L53.669,78.981L53.181,77.605L52.636,76.236L52.032,74.882L51.366,73.549L50.638,72.244L49.848,70.973L48.995,69.741L48.081,68.552L47.107,67.413L46.075,66.325L44.987,65.293L43.848,64.319L42.659,63.405L41.427,62.552L40.156,61.762L38.851,61.034L37.518,60.368L36.164,59.764L34.795,59.219L33.419,58.731L32.043,58.299L30.674,57.920L29.321,57.591L27.992,57.308L26.694,57.069L25.435,56.868L24.223,56.703L23.066,56.569L21.970,56.464L20.944,56.382L19.994,56.320L19.126,56.276L18.345,56.245L17.658,56.224L17.068,56.212L16.580,56.205L16.197,56.202L15.922,56.200L15.755,56.200L15.700,56.200L15.755,56.200L15.922,56.200L16.197,56.198L16.580,56.195L17.068,56.188L17.658,56.176L18.345,56.155L19.126,56.124L19.994,56.080L20.944,56.018L21.970,55.936L23.066,55.831L24.223,55.697L25.435,55.532L26.694,55.331L27.992,55.092L29.321,54.809L30.674,54.480L32.043,54.101L33.419,53.669L34.795,53.181L36.164,52.636L37.518,52.032L38.851,51.366L40.156,50.638L41.427,49.848L42.659,48.995L43.848,48.081L44.987,47.107L46.075,46.075L47.107,44.987L48.081,43.848L48.995,42.659L49.848,41.427L50.638,40.156L51.366,38.851L52.032,37.518L52.636,36.164L53.181,34.795L53.669,33.419L54.101,32.043L54.480,30.674L54.809,29.321L55.092,27.992L55.331,26.694L55.532,25.435L55.697,24.223L55.831,23.066L55.936,21.970L56.018,20.944L56.080,19.994L56.124,19.126L56.155,18.345L56.176,17.658L56.188,17.068L56.195,16.580L56.198,16.197L56.200,15.922L56.200,15.755L56.200,15.700L56.200,15.755L56.200,15.922L56.202,16.197L56.205,16.580L56.212,17.068L56.224,17.658L56.245,18.345L56.276,19.126L56.320,19.994L56.382,20.944L56.464,21.970L56.569,23.066L56.703,24.223L56.868,25.435L57.069,26.694L57.308,27.992L57.591,29.321L57.920,30.674L58.299,32.043L58.731,33.419L59.219,34.795L59.764,36.164L60.368,37.518L61.034,38.851L61.762,40.156L62.552,41.427L63.405,42.659L64.319,43.848L65.293,44.987L66.325,46.075L67.413,47.107L68.552,48.081L69.741,48.995L70.973,49.848L72.244,50.638L73.549,51.366L74.882,52.032L76.236,52.636L77.605,53.181L78.981,53.669L80.357,54.101L81.726,54.480L83.079,54.809L84.408,55.092L85.706,55.331L86.965,55.532L88.177,55.697L89.334,55.831L90.430,55.936L91.456,56.018L92.406,56.080L93.274,56.124L94.055,56.155L94.742,56.176L95.332,56.188L95.820,56.195L96.203,56.198L96.478,56.200L96.645,56.200Z M95.100,56.200L95.047,56.200L94.887,56.200L94.623,56.201L94.255,56.205L93.786,56.211L93.219,56.223L92.559,56.243L91.810,56.273L90.976,56.316L90.063,56.375L89.077,56.453L88.025,56.555L86.914,56.683L85.750,56.842L84.541,57.034L83.294,57.265L82.017,57.536L80.717,57.852L79.403,58.217L78.081,58.631L76.760,59.099L75.445,59.623L74.144,60.204L72.864,60.843L71.610,61.542L70.389,62.302L69.206,63.120L68.064,63.998L66.970,64.934L65.925,65.925L64.934,66.970L63.998,68.064L63.120,69.206L62.302,70.389L61.542,71.610L60.843,72.864L60.204,74.144L59.623,75.445L59.099,76.760L58.631,78.081L58.217,79.403L57.852,80.717L57.536,82.017L57.265,83.294L57.034,84.541L56.842,85.750L56.683,86.914L56.555,88.025L56.453,89.077L56.375,90.063L56.316,90.976L56.273,91.810L56.243,92.559L56.223,93.219L56.211,93.786L56.205,94.255L56.201,94.623L56.200,94.887L56.200,95.047L56.200,95.100L56.200,95.047L56.200,94.887L56.199,94.623L56.195,94.255L56.189,93.786L56.177,93.219L56.157,92.559L56.127,91.810L56.084,90.976L56.025,90.063L55.947,89.077L55.845,88.025L55.717,86.914L55.558,85.750L55.366,84.541L55.135,83.294L54.864,82.017L54.548,80.717L54.183,79.403L53.769,78.081L53.301,76.760L52.777,75.445L52.196,74.144L51.557,72.864L50.858,71.610L50.098,70.389L49.280,69.206L48.402,68.064L47.466,66.970L46.475,65.925L45.430,64.934L44.336,63.998L43.194,63.120L42.011,62.302L40.790,61.542L39.536,60.843L38.256,60.204L36.955,59.623L35.640,59.099L34.319,58.631L32.997,58.217L31.683,57.852L30.383,57.536L29.106,57.265L27.859,57.034L26.650,56.842L25.486,56.683L24.375,56.555L23.323,56.453L22.337,56.375L21.424,56.316L20.590,56.273L19.841,56.243L19.181,56.223L18.614,56.211L18.145,56.205L17.777,56.201L17.513,56.200L17.353,56.200L17.300,56.200L17.353,56.200L17.513,56.200L17.777,56.199L18.145,56.195L18.614,56.189L19.181,56.177L19.841,56.157L20.590,56.127L21.424,56.084L22.337,56.025L23.323,55.947L24.375,55.845L25.486,55.717L26.650,55.558L27.859,55.366L29.106,55.135L30.383,54.864L31.683,54.548L32.997,54.183L34.319,53.769L35.640,53.301L36.955,52.777L38.256,52.196L39.536,51.557L40.790,50.858L42.011,50.098L43.194,49.280L44.336,48.402L45.430,47.466L46.475,46.475L47.466,45.430L48.402,44.336L49.280,43.194L50.098,42.011L50.858,40.790L51.557,39.536L52.196,38.256L52.777,36.955L53.301,35.640L53.769,34.319L54.183,32.997L54.548,31.683L54.864,30.383L55.135,29.106L55.366,27.859L55.558,26.650L55.717,25.486L55.845,24.375L55.947,23.323L56.025,22.337L56.084,21.424L56.127,20.590L56.157,19.841L56.177,19.181L56.189,18.614L56.195,18.145L56.199,17.777L56.200,17.513L56.200,17.353L56.200,17.300L56.200,17.353L56.200,17.513L56.201,17.777L56.205,18.145L56.211,18.614L56.223,19.181L56.243,19.841L56.273,20.590L56.316,21.424L56.375,22.337L56.453,23.323L56.555,24.375L56.683,25.486L56.842,26.650L57.034,27.859L57.265,29.106L57.536,30.383L57.852,31.683L58.217,32.997L58.631,34.319L59.099,35.640L59.623,36.955L60.204,38.256L60.843,39.536L61.542,40.790L62.302,42.011L63.120,43.194L63.998,44.336L64.934,45.430L65.925,46.475L66.970,47.466L68.064,48.402L69.206,49.280L70.389,50.098L71.610,50.858L72.864,51.557L74.144,52.196L75.445,52.777L76.760,53.301L78.081,53.769L79.403,54.183L80.717,54.548L82.017,54.864L83.294,55.135L84.541,55.366L85.750,55.558L86.914,55.717L88.025,55.845L89.077,55.947L90.063,56.025L90.976,56.084L91.810,56.127L92.559,56.157L93.219,56.177L93.786,56.189L94.255,56.195L94.623,56.199L94.887,56.200L95.047,56.200Z"/>
</svg>
